<mxfile host="app.diagrams.net" agent="Mozilla/5.0 (X11; Linux x86_64) AppleWebKit/537.36 (KHTML, like Gecko) Chrome/138.0.0.0 Safari/537.36" version="28.0.6">
  <diagram name="Page-1" id="Ymi0RUkjMWENUb1TxihJ">
    <mxGraphModel dx="1938" dy="1643" grid="1" gridSize="10" guides="1" tooltips="1" connect="1" arrows="1" fold="1" page="1" pageScale="1" pageWidth="850" pageHeight="1100" math="0" shadow="0">
      <root>
        <mxCell id="0" />
        <mxCell id="1" parent="0" />
        <mxCell id="2GHSdd8_yqLICw1Ay3XO-53" value="" style="whiteSpace=wrap;html=1;aspect=fixed;fillColor=light-dark(#99FFFF,#EDEDED);gradientColor=#FFFFFF;" vertex="1" parent="1">
          <mxGeometry x="2270" y="-5" width="325" height="325" as="geometry" />
        </mxCell>
        <mxCell id="C1lKtvfjvzhaC3hKCN_N-85" value="" style="rounded=0;whiteSpace=wrap;html=1;fillColor=light-dark(#99FFFF,#EDEDED);gradientColor=#FFFFFF;" parent="1" vertex="1">
          <mxGeometry x="890" y="40" width="370" height="200" as="geometry" />
        </mxCell>
        <mxCell id="C1lKtvfjvzhaC3hKCN_N-8" value="no" style="ellipse;whiteSpace=wrap;html=1;aspect=fixed;fillColor=#f8cecc;strokeColor=#b85450;" parent="1" vertex="1">
          <mxGeometry x="140" y="325" width="20" height="20" as="geometry" />
        </mxCell>
        <mxCell id="C1lKtvfjvzhaC3hKCN_N-7" value="yes" style="ellipse;whiteSpace=wrap;html=1;aspect=fixed;fillColor=#d5e8d4;strokeColor=#82b366;container=0;" parent="1" vertex="1">
          <mxGeometry x="120" y="150" width="25" height="25" as="geometry" />
        </mxCell>
        <mxCell id="C1lKtvfjvzhaC3hKCN_N-1" value="first choice&lt;div&gt;BACKEND&lt;/div&gt;" style="whiteSpace=wrap;html=1;aspect=fixed;fillColor=light-dark(#99FFFF,#EDEDED);" parent="1" vertex="1">
          <mxGeometry x="30" y="200" width="90" height="90" as="geometry" />
        </mxCell>
        <mxCell id="C1lKtvfjvzhaC3hKCN_N-3" value="" style="endArrow=none;html=1;rounded=0;exitX=1;exitY=0;exitDx=0;exitDy=0;fillColor=#008a00;strokeColor=#005700;entryX=0.007;entryY=0.709;entryDx=0;entryDy=0;entryPerimeter=0;" parent="1" source="C1lKtvfjvzhaC3hKCN_N-1" target="C1lKtvfjvzhaC3hKCN_N-22" edge="1">
          <mxGeometry width="50" height="50" relative="1" as="geometry">
            <mxPoint x="140" y="190" as="sourcePoint" />
            <mxPoint x="190" y="140" as="targetPoint" />
          </mxGeometry>
        </mxCell>
        <mxCell id="C1lKtvfjvzhaC3hKCN_N-4" value="" style="endArrow=none;html=1;rounded=0;exitX=1;exitY=1;exitDx=0;exitDy=0;fillColor=#a20025;strokeColor=#6F0000;" parent="1" source="C1lKtvfjvzhaC3hKCN_N-1" edge="1">
          <mxGeometry width="50" height="50" relative="1" as="geometry">
            <mxPoint x="140" y="290" as="sourcePoint" />
            <mxPoint x="200" y="350" as="targetPoint" />
          </mxGeometry>
        </mxCell>
        <mxCell id="C1lKtvfjvzhaC3hKCN_N-9" value="major module" style="ellipse;whiteSpace=wrap;html=1;fillColor=light-dark(#F2F61E,#EDEDED);" parent="1" vertex="1">
          <mxGeometry x="-170" y="30" width="60" height="30" as="geometry" />
        </mxCell>
        <mxCell id="C1lKtvfjvzhaC3hKCN_N-10" value="minor module" style="ellipse;whiteSpace=wrap;html=1;fillColor=light-dark(#FFC46C,#EDEDED);" parent="1" vertex="1">
          <mxGeometry x="-170" y="70" width="60" height="30" as="geometry" />
        </mxCell>
        <mxCell id="C1lKtvfjvzhaC3hKCN_N-14" value="core choice" style="ellipse;whiteSpace=wrap;html=1;fillColor=light-dark(#99FFFF,#EDEDED);" parent="1" vertex="1">
          <mxGeometry x="-175" y="110" width="70" height="30" as="geometry" />
        </mxCell>
        <mxCell id="C1lKtvfjvzhaC3hKCN_N-15" value="tool activation" style="ellipse;whiteSpace=wrap;html=1;fillColor=#3399FF;" parent="1" vertex="1">
          <mxGeometry x="-175" y="155" width="75" height="45" as="geometry" />
        </mxCell>
        <mxCell id="C1lKtvfjvzhaC3hKCN_N-110" style="edgeStyle=orthogonalEdgeStyle;rounded=0;orthogonalLoop=1;jettySize=auto;html=1;entryX=0.5;entryY=0;entryDx=0;entryDy=0;" parent="1" source="C1lKtvfjvzhaC3hKCN_N-34" target="C1lKtvfjvzhaC3hKCN_N-94" edge="1">
          <mxGeometry relative="1" as="geometry" />
        </mxCell>
        <mxCell id="C1lKtvfjvzhaC3hKCN_N-34" value="No backend at all gamle play, matchmaking, ui entirely front end. Use browser storage ? local multiplayer only?" style="rounded=0;whiteSpace=wrap;html=1;" parent="1" vertex="1">
          <mxGeometry x="200" y="340" width="340" height="80" as="geometry" />
        </mxCell>
        <mxCell id="C1lKtvfjvzhaC3hKCN_N-35" value="&lt;font style=&quot;color: rgb(0, 0, 0);&quot;&gt;tools&lt;/font&gt;" style="swimlane;childLayout=stackLayout;horizontal=1;startSize=25;horizontalStack=0;rounded=1;fontSize=14;fontStyle=0;strokeWidth=2;resizeParent=0;resizeLast=1;shadow=0;dashed=0;align=center;arcSize=4;whiteSpace=wrap;html=1;fillColor=#1ba1e2;fontColor=#ffffff;strokeColor=#006EAF;movable=1;resizable=1;rotatable=1;deletable=1;editable=1;locked=0;connectable=1;" parent="1" vertex="1" collapsed="1">
          <mxGeometry x="460" y="400" width="80" height="20" as="geometry">
            <mxRectangle x="460" y="400" width="170" height="120" as="alternateBounds" />
          </mxGeometry>
        </mxCell>
        <mxCell id="C1lKtvfjvzhaC3hKCN_N-36" value="" style="align=left;strokeColor=none;fillColor=light-dark(#f2e8e8, #ededed);spacingLeft=4;spacingRight=4;fontSize=12;verticalAlign=top;resizable=0;rotatable=0;part=1;html=1;whiteSpace=wrap;" parent="C1lKtvfjvzhaC3hKCN_N-35" vertex="1">
          <mxGeometry y="25" width="170" height="95" as="geometry" />
        </mxCell>
        <mxCell id="C1lKtvfjvzhaC3hKCN_N-43" value="&lt;font style=&quot;color: rgb(0, 0, 0);&quot;&gt;tools&lt;/font&gt;" style="swimlane;childLayout=stackLayout;horizontal=1;startSize=25;horizontalStack=0;rounded=1;fontSize=14;fontStyle=0;strokeWidth=2;resizeParent=0;resizeLast=1;shadow=0;dashed=0;align=center;arcSize=4;whiteSpace=wrap;html=1;fillColor=#1ba1e2;fontColor=#ffffff;strokeColor=#006EAF;movable=1;resizable=1;rotatable=1;deletable=1;editable=1;locked=0;connectable=1;" parent="1" vertex="1">
          <mxGeometry x="1210" y="-220" width="170" height="120" as="geometry">
            <mxRectangle x="770" y="140" width="80" height="20" as="alternateBounds" />
          </mxGeometry>
        </mxCell>
        <mxCell id="C1lKtvfjvzhaC3hKCN_N-44" value="Fastify (add a link)&lt;div&gt;Node.js (add a link)&lt;/div&gt;&lt;div&gt;[modern routing, websockets, token auth]&lt;/div&gt;" style="align=left;strokeColor=none;fillColor=light-dark(#f2e8e8, #ededed);spacingLeft=4;spacingRight=4;fontSize=12;verticalAlign=top;resizable=0;rotatable=0;part=1;html=1;whiteSpace=wrap;" parent="C1lKtvfjvzhaC3hKCN_N-43" vertex="1">
          <mxGeometry y="25" width="170" height="95" as="geometry" />
        </mxCell>
        <mxCell id="C1lKtvfjvzhaC3hKCN_N-47" value="conflicting module" style="ellipse;whiteSpace=wrap;html=1;fillColor=#FF3333;" parent="1" vertex="1">
          <mxGeometry x="-197" y="205" width="97" height="45" as="geometry" />
        </mxCell>
        <mxCell id="C1lKtvfjvzhaC3hKCN_N-51" value="Minor module: Supports multiple languages." style="rounded=0;whiteSpace=wrap;html=1;" parent="1" vertex="1">
          <mxGeometry x="10" y="1310" width="330" height="60" as="geometry" />
        </mxCell>
        <mxCell id="C1lKtvfjvzhaC3hKCN_N-52" value="Minor module: Add accessibility for Visually Impaired Users." style="rounded=0;whiteSpace=wrap;html=1;" parent="1" vertex="1">
          <mxGeometry x="10" y="1370" width="340" height="60" as="geometry" />
        </mxCell>
        <mxCell id="C1lKtvfjvzhaC3hKCN_N-53" value="â€¢ Minor module: Support on all devices." style="rounded=0;whiteSpace=wrap;html=1;" parent="1" vertex="1">
          <mxGeometry x="10" y="1190" width="340" height="60" as="geometry" />
        </mxCell>
        <mxCell id="C1lKtvfjvzhaC3hKCN_N-54" value="Minor module: Expanding Browser Compatibility" style="rounded=0;whiteSpace=wrap;html=1;" parent="1" vertex="1">
          <mxGeometry x="10" y="1250" width="340" height="60" as="geometry" />
        </mxCell>
        <mxCell id="C1lKtvfjvzhaC3hKCN_N-59" value="Major module: Remote players" style="rounded=0;whiteSpace=wrap;html=1;" parent="1" vertex="1">
          <mxGeometry x="-520" y="1100" width="350" height="60" as="geometry" />
        </mxCell>
        <mxCell id="C1lKtvfjvzhaC3hKCN_N-60" value="Major module: Multiplayer (more than 2 players in the same game)" style="rounded=0;whiteSpace=wrap;html=1;" parent="1" vertex="1">
          <mxGeometry x="-520" y="1160" width="360" height="60" as="geometry" />
        </mxCell>
        <mxCell id="C1lKtvfjvzhaC3hKCN_N-61" value="Major module: Add another game with user history and matchmaking" style="rounded=0;whiteSpace=wrap;html=1;" parent="1" vertex="1">
          <mxGeometry x="-530" y="1220" width="370" height="60" as="geometry" />
        </mxCell>
        <mxCell id="C1lKtvfjvzhaC3hKCN_N-62" value="Minor module: Game customization options" style="rounded=0;whiteSpace=wrap;html=1;" parent="1" vertex="1">
          <mxGeometry x="-535" y="1280" width="390" height="60" as="geometry" />
        </mxCell>
        <mxCell id="C1lKtvfjvzhaC3hKCN_N-63" value="Major module: Introduce an AI opponent" style="rounded=0;whiteSpace=wrap;html=1;" parent="1" vertex="1">
          <mxGeometry x="-530" y="1340" width="380" height="60" as="geometry" />
        </mxCell>
        <mxCell id="C1lKtvfjvzhaC3hKCN_N-64" value="Minor module: User and game stats dashboards" style="rounded=0;whiteSpace=wrap;html=1;" parent="1" vertex="1">
          <mxGeometry x="-535" y="1400" width="370" height="60" as="geometry" />
        </mxCell>
        <mxCell id="C1lKtvfjvzhaC3hKCN_N-65" value="Minor module: GDPR compliance options with user anonymization, local data management, and Account Deletion" style="rounded=0;whiteSpace=wrap;html=1;" parent="1" vertex="1">
          <mxGeometry x="1075" y="800" width="370" height="60" as="geometry" />
        </mxCell>
        <mxCell id="C1lKtvfjvzhaC3hKCN_N-66" value="Minor module: Monitoring system" style="rounded=0;whiteSpace=wrap;html=1;" parent="1" vertex="1">
          <mxGeometry x="1060" y="760" width="380" height="60" as="geometry" />
        </mxCell>
        <mxCell id="C1lKtvfjvzhaC3hKCN_N-67" value="Minor module: Server-Side Rendering (SSR) integration" style="rounded=0;whiteSpace=wrap;html=1;" parent="1" vertex="1">
          <mxGeometry x="1050" y="710" width="380" height="60" as="geometry" />
        </mxCell>
        <mxCell id="C1lKtvfjvzhaC3hKCN_N-68" value="&lt;div&gt;Without a framework:&lt;/div&gt;&lt;div&gt;&lt;br&gt;&lt;/div&gt;&lt;div&gt;Complex UI (e.g., live multiplayer) lacks reactive state management&lt;/div&gt;&lt;div&gt;&lt;br&gt;&lt;/div&gt;&lt;div&gt;Rendering dashboards and stats becomes tedious&lt;/div&gt;&lt;div&gt;&lt;br&gt;&lt;/div&gt;&lt;div&gt;SSR is essentially out unless you custom-build everything&lt;/div&gt;&lt;div&gt;&lt;br&gt;&lt;/div&gt;&lt;div&gt;Routing, forms, and dynamic interfaces get clunky to maintain&lt;/div&gt;" style="whiteSpace=wrap;html=1;aspect=fixed;" parent="1" vertex="1">
          <mxGeometry x="-105" y="850" width="230" height="230" as="geometry" />
        </mxCell>
        <mxCell id="C1lKtvfjvzhaC3hKCN_N-70" value="no" style="ellipse;whiteSpace=wrap;html=1;aspect=fixed;fillColor=#f8cecc;strokeColor=#b85450;" parent="1" vertex="1">
          <mxGeometry x="150" y="452.5" width="20" height="20" as="geometry" />
        </mxCell>
        <mxCell id="C1lKtvfjvzhaC3hKCN_N-72" value="yes" style="ellipse;whiteSpace=wrap;html=1;aspect=fixed;fillColor=#d5e8d4;strokeColor=#82b366;container=0;" parent="1" vertex="1">
          <mxGeometry x="565" y="450" width="25" height="25" as="geometry" />
        </mxCell>
        <mxCell id="C1lKtvfjvzhaC3hKCN_N-73" value="effects" style="swimlane;childLayout=stackLayout;horizontal=1;startSize=30;horizontalStack=0;rounded=1;fontSize=14;fontStyle=0;strokeWidth=2;resizeParent=0;resizeLast=1;shadow=0;dashed=0;align=center;arcSize=4;whiteSpace=wrap;html=1;" parent="1" vertex="1" collapsed="1">
          <mxGeometry x="280" y="400" width="80" height="20" as="geometry">
            <mxRectangle x="80" y="390" width="275" height="320" as="alternateBounds" />
          </mxGeometry>
        </mxCell>
        <mxCell id="C1lKtvfjvzhaC3hKCN_N-74" value="&lt;div&gt;You are limited to client-side logic only&lt;/div&gt;&lt;div&gt;&lt;br&gt;&lt;/div&gt;&lt;div&gt;All multiplayer interactions are local-only&lt;/div&gt;&lt;div&gt;&lt;br&gt;&lt;/div&gt;&lt;div&gt;Tournament and player data is session-based, unless saved manually per client&lt;/div&gt;&lt;div&gt;&lt;br&gt;&lt;/div&gt;&lt;div&gt;You cannot offer persistent stats, history, or online profiles&lt;/div&gt;&lt;div&gt;&lt;br&gt;&lt;/div&gt;&lt;div&gt;You are bypassing backend-related security features like hashed password storage and JWT&lt;/div&gt;&lt;div&gt;&lt;br&gt;&lt;/div&gt;&lt;div&gt;Any additional modules requiring DB/API/backend must be disabled or replaced by local-only features&lt;/div&gt;" style="align=left;strokeColor=none;fillColor=none;spacingLeft=4;spacingRight=4;fontSize=12;verticalAlign=top;resizable=0;rotatable=0;part=1;html=1;whiteSpace=wrap;" parent="C1lKtvfjvzhaC3hKCN_N-73" vertex="1">
          <mxGeometry y="30" width="275" height="290" as="geometry" />
        </mxCell>
        <mxCell id="C1lKtvfjvzhaC3hKCN_N-75" value="&lt;font style=&quot;color: rgb(0, 0, 0);&quot;&gt;conflict&lt;/font&gt;" style="swimlane;childLayout=stackLayout;horizontal=1;startSize=25;horizontalStack=0;rounded=1;fontSize=14;fontStyle=0;strokeWidth=2;resizeParent=0;resizeLast=1;shadow=0;dashed=0;align=center;arcSize=4;whiteSpace=wrap;html=1;fillColor=#FF3333;fontColor=#ffffff;strokeColor=#006EAF;movable=1;resizable=1;rotatable=1;deletable=1;editable=1;locked=0;connectable=1;" parent="1" vertex="1" collapsed="1">
          <mxGeometry x="-190" y="463" width="80" height="87.5" as="geometry">
            <mxRectangle x="970" y="490" width="280" height="560" as="alternateBounds" />
          </mxGeometry>
        </mxCell>
        <mxCell id="C1lKtvfjvzhaC3hKCN_N-76" value="IV.2 Web&amp;nbsp;&lt;div&gt;-&amp;nbsp;Major module: Use a framework to build the backend&lt;br&gt;&lt;div&gt;- Minor module: Use a database for the backend -and more.&lt;div&gt;-&amp;nbsp;Major module: Store the score of a tournament in the Blockchain&lt;/div&gt;&lt;div&gt;&lt;br&gt;&lt;/div&gt;&lt;div&gt;user management&lt;/div&gt;&lt;div&gt;-&amp;nbsp;Major module: Standard user management, authentication, users across tournaments&lt;/div&gt;&lt;div&gt;-&amp;nbsp;Major module: Implementing a remote authentication&lt;/div&gt;&lt;div&gt;gameplay ans user exp&lt;/div&gt;&lt;div&gt;-Major module: Live chat&lt;br&gt;&lt;div&gt;&lt;br&gt;&lt;/div&gt;&lt;div&gt;cybersecurity&lt;/div&gt;&lt;div&gt;-&amp;nbsp;&lt;span style=&quot;background-color: transparent;&quot;&gt;Major module: Implement WAF/ModSecurity with a hardened configuration and HashiCorp Vault for secrets management&lt;/span&gt;&lt;/div&gt;&lt;div&gt;- Major module: Implement Two-Factor Authentication (2FA) and JWT&lt;/div&gt;&lt;div&gt;&lt;br&gt;&lt;/div&gt;&lt;/div&gt;&lt;/div&gt;&lt;/div&gt;&lt;div&gt;devops&lt;/div&gt;&lt;div&gt;&lt;div&gt;- Major module: Infrastructure setup for log management&lt;/div&gt;&lt;div&gt;- Major module: Designing the backend as microservices&lt;/div&gt;&lt;/div&gt;&lt;div&gt;&lt;br&gt;&lt;/div&gt;&lt;div&gt;server side pong&lt;/div&gt;&lt;div&gt;-&amp;nbsp;&lt;span style=&quot;background-color: transparent;&quot;&gt;Major module: Replace basic Pong with server-side Pong and implement an API&lt;/span&gt;&lt;/div&gt;&lt;div&gt;- Major module: Enabling Pong gameplay via CLI against web users with API integration&lt;/div&gt;" style="align=left;strokeColor=none;fillColor=light-dark(#f2e8e8, #ededed);spacingLeft=4;spacingRight=4;fontSize=12;verticalAlign=top;resizable=0;rotatable=0;part=1;html=1;whiteSpace=wrap;" parent="C1lKtvfjvzhaC3hKCN_N-75" vertex="1">
          <mxGeometry y="25" width="280" height="535" as="geometry" />
        </mxCell>
        <mxCell id="C1lKtvfjvzhaC3hKCN_N-77" value="effects" style="swimlane;childLayout=stackLayout;horizontal=1;startSize=30;horizontalStack=0;rounded=1;fontSize=14;fontStyle=0;strokeWidth=2;resizeParent=0;resizeLast=1;shadow=0;dashed=0;align=center;arcSize=4;whiteSpace=wrap;html=1;" parent="1" vertex="1" collapsed="1">
          <mxGeometry x="-190" y="485.5" width="80" height="20" as="geometry">
            <mxRectangle x="80" y="390" width="275" height="320" as="alternateBounds" />
          </mxGeometry>
        </mxCell>
        <mxCell id="C1lKtvfjvzhaC3hKCN_N-78" value="&lt;div&gt;You are limited to client-side logic only&lt;/div&gt;&lt;div&gt;&lt;br&gt;&lt;/div&gt;&lt;div&gt;All multiplayer interactions are local-only&lt;/div&gt;&lt;div&gt;&lt;br&gt;&lt;/div&gt;&lt;div&gt;Tournament and player data is session-based, unless saved manually per client&lt;/div&gt;&lt;div&gt;&lt;br&gt;&lt;/div&gt;&lt;div&gt;You cannot offer persistent stats, history, or online profiles&lt;/div&gt;&lt;div&gt;&lt;br&gt;&lt;/div&gt;&lt;div&gt;You are bypassing backend-related security features like hashed password storage and JWT&lt;/div&gt;&lt;div&gt;&lt;br&gt;&lt;/div&gt;&lt;div&gt;Any additional modules requiring DB/API/backend must be disabled or replaced by local-only features&lt;/div&gt;" style="align=left;strokeColor=none;fillColor=none;spacingLeft=4;spacingRight=4;fontSize=12;verticalAlign=top;resizable=0;rotatable=0;part=1;html=1;whiteSpace=wrap;" parent="C1lKtvfjvzhaC3hKCN_N-77" vertex="1">
          <mxGeometry y="30" width="275" height="290" as="geometry" />
        </mxCell>
        <mxCell id="C1lKtvfjvzhaC3hKCN_N-80" value="" style="rounded=0;whiteSpace=wrap;html=1;fillColor=light-dark(#99FFFF,#EDEDED);gradientColor=#FFFFFF;" parent="1" vertex="1">
          <mxGeometry x="1590" width="330" height="290" as="geometry" />
        </mxCell>
        <mxCell id="C1lKtvfjvzhaC3hKCN_N-40" value="&lt;div&gt;&amp;nbsp;Use a framework or toolkit to build the front-end.&lt;/div&gt;&lt;div&gt;Your frontend development must use the Tailwind CSS in addition of the Typescript, and nothing else.&lt;/div&gt;" style="rounded=0;whiteSpace=wrap;html=1;fillColor=light-dark(#FFC46C,#EDEDED);" parent="1" vertex="1">
          <mxGeometry x="1600" y="100" width="310" height="90" as="geometry" />
        </mxCell>
        <mxCell id="C1lKtvfjvzhaC3hKCN_N-41" value="&lt;font style=&quot;color: rgb(0, 0, 0);&quot;&gt;tools&lt;/font&gt;" style="swimlane;childLayout=stackLayout;horizontal=1;startSize=25;horizontalStack=0;rounded=1;fontSize=14;fontStyle=0;strokeWidth=2;resizeParent=0;resizeLast=1;shadow=0;dashed=0;align=center;arcSize=4;whiteSpace=wrap;html=1;fillColor=#1ba1e2;fontColor=#ffffff;strokeColor=#006EAF;movable=1;resizable=1;rotatable=1;deletable=1;editable=1;locked=0;connectable=1;" parent="1" vertex="1">
          <mxGeometry x="-367" y="352.5" width="170" height="120" as="geometry">
            <mxRectangle x="1470" y="70" width="80" height="20" as="alternateBounds" />
          </mxGeometry>
        </mxCell>
        <mxCell id="C1lKtvfjvzhaC3hKCN_N-42" value="Fastify (add a link)&lt;div&gt;Node.js (add a link)&lt;/div&gt;&lt;div&gt;[modern routing, websockets, token auth]&lt;/div&gt;" style="align=left;strokeColor=none;fillColor=light-dark(#f2e8e8, #ededed);spacingLeft=4;spacingRight=4;fontSize=12;verticalAlign=top;resizable=0;rotatable=0;part=1;html=1;whiteSpace=wrap;" parent="C1lKtvfjvzhaC3hKCN_N-41" vertex="1">
          <mxGeometry y="25" width="170" height="95" as="geometry" />
        </mxCell>
        <mxCell id="C1lKtvfjvzhaC3hKCN_N-81" value="&lt;div&gt;IV.8 Graphics&lt;/div&gt;&lt;div&gt;Implementing Advanced 3D Techniques&lt;/div&gt;" style="rounded=0;whiteSpace=wrap;html=1;fillColor=light-dark(#F2F61E,#EDEDED);" parent="1" vertex="1">
          <mxGeometry x="1600" y="25" width="300" height="60" as="geometry" />
        </mxCell>
        <mxCell id="C1lKtvfjvzhaC3hKCN_N-82" value="default typescript" style="rounded=0;whiteSpace=wrap;html=1;" parent="1" vertex="1">
          <mxGeometry x="1605" y="217.5" width="300" height="60" as="geometry" />
        </mxCell>
        <mxCell id="C1lKtvfjvzhaC3hKCN_N-87" value="Text" style="text;html=1;align=center;verticalAlign=middle;resizable=0;points=[];autosize=1;strokeColor=none;fillColor=none;" parent="1" vertex="1">
          <mxGeometry x="1275" y="-90" width="50" height="30" as="geometry" />
        </mxCell>
        <mxCell id="C1lKtvfjvzhaC3hKCN_N-94" value="" style="rounded=0;whiteSpace=wrap;html=1;fillColor=light-dark(#99FFFF,#EDEDED);gradientColor=#FFFFFF;" parent="1" vertex="1">
          <mxGeometry x="215" y="560" width="330" height="320" as="geometry" />
        </mxCell>
        <mxCell id="C1lKtvfjvzhaC3hKCN_N-95" value="&lt;div&gt;&amp;nbsp;Use a framework or toolkit to build the front-end.&lt;/div&gt;&lt;div&gt;Your frontend development must use the Tailwind CSS in addition of the Typescript, and nothing else.&lt;/div&gt;" style="rounded=0;whiteSpace=wrap;html=1;fillColor=light-dark(#FFC46C,#EDEDED);" parent="1" vertex="1">
          <mxGeometry x="225" y="675" width="310" height="90" as="geometry" />
        </mxCell>
        <mxCell id="C1lKtvfjvzhaC3hKCN_N-96" value="&lt;div&gt;IV.8 Graphics&lt;/div&gt;&lt;div&gt;Implementing Advanced 3D Techniques&lt;/div&gt;&lt;div&gt;(if this chosen , no points for front end framework module)&lt;/div&gt;" style="rounded=0;whiteSpace=wrap;html=1;fillColor=light-dark(#F2F61E,#EDEDED);" parent="1" vertex="1">
          <mxGeometry x="225" y="570" width="300" height="90" as="geometry" />
        </mxCell>
        <mxCell id="C1lKtvfjvzhaC3hKCN_N-97" value="default typescript" style="rounded=0;whiteSpace=wrap;html=1;" parent="1" vertex="1">
          <mxGeometry x="230" y="792.5" width="300" height="60" as="geometry" />
        </mxCell>
        <mxCell id="C1lKtvfjvzhaC3hKCN_N-98" value="&lt;font style=&quot;color: rgb(0, 0, 0);&quot;&gt;tools&lt;/font&gt;" style="swimlane;childLayout=stackLayout;horizontal=1;startSize=25;horizontalStack=0;rounded=1;fontSize=14;fontStyle=0;strokeWidth=2;resizeParent=0;resizeLast=1;shadow=0;dashed=0;align=center;arcSize=4;whiteSpace=wrap;html=1;fillColor=#1ba1e2;fontColor=#ffffff;strokeColor=#006EAF;movable=1;resizable=1;rotatable=1;deletable=1;editable=1;locked=0;connectable=1;" parent="1" vertex="1" collapsed="1">
          <mxGeometry x="445" y="640" width="80" height="20" as="geometry">
            <mxRectangle x="-90" y="490" width="170" height="120" as="alternateBounds" />
          </mxGeometry>
        </mxCell>
        <mxCell id="C1lKtvfjvzhaC3hKCN_N-99" value="typescript&lt;div&gt;Babylon.js&lt;br&gt;&lt;div&gt;tailwind (optional)&lt;/div&gt;&lt;/div&gt;" style="align=left;strokeColor=none;fillColor=light-dark(#f2e8e8, #ededed);spacingLeft=4;spacingRight=4;fontSize=12;verticalAlign=top;resizable=0;rotatable=0;part=1;html=1;whiteSpace=wrap;" parent="C1lKtvfjvzhaC3hKCN_N-98" vertex="1">
          <mxGeometry y="25" width="170" height="95" as="geometry" />
        </mxCell>
        <mxCell id="C1lKtvfjvzhaC3hKCN_N-100" value="&lt;font style=&quot;color: rgb(0, 0, 0);&quot;&gt;tools&lt;/font&gt;" style="swimlane;childLayout=stackLayout;horizontal=1;startSize=25;horizontalStack=0;rounded=1;fontSize=14;fontStyle=0;strokeWidth=2;resizeParent=0;resizeLast=1;shadow=0;dashed=0;align=center;arcSize=4;whiteSpace=wrap;html=1;fillColor=#1ba1e2;fontColor=#ffffff;strokeColor=#006EAF;movable=1;resizable=1;rotatable=1;deletable=1;editable=1;locked=0;connectable=1;" parent="1" vertex="1" collapsed="1">
          <mxGeometry x="455" y="745" width="80" height="20" as="geometry">
            <mxRectangle x="-190" y="580" width="170" height="120" as="alternateBounds" />
          </mxGeometry>
        </mxCell>
        <mxCell id="C1lKtvfjvzhaC3hKCN_N-101" value="typescript&amp;nbsp;&lt;div&gt;tailwind css&amp;nbsp;&lt;/div&gt;&lt;div&gt;ONLY&lt;/div&gt;" style="align=left;strokeColor=none;fillColor=light-dark(#f2e8e8, #ededed);spacingLeft=4;spacingRight=4;fontSize=12;verticalAlign=top;resizable=0;rotatable=0;part=1;html=1;whiteSpace=wrap;" parent="C1lKtvfjvzhaC3hKCN_N-100" vertex="1">
          <mxGeometry y="25" width="170" height="95" as="geometry" />
        </mxCell>
        <mxCell id="C1lKtvfjvzhaC3hKCN_N-29" value="&lt;font style=&quot;color: rgb(0, 0, 0);&quot;&gt;tools&lt;/font&gt;" style="swimlane;childLayout=stackLayout;horizontal=1;startSize=25;horizontalStack=0;rounded=1;fontSize=14;fontStyle=0;strokeWidth=2;resizeParent=0;resizeLast=1;shadow=0;dashed=0;align=center;arcSize=4;whiteSpace=wrap;html=1;fillColor=#1ba1e2;fontColor=#ffffff;strokeColor=#006EAF;movable=1;resizable=1;rotatable=1;deletable=1;editable=1;locked=0;connectable=1;" parent="1" vertex="1" collapsed="1">
          <mxGeometry x="450" y="832.5" width="80" height="20" as="geometry">
            <mxRectangle x="440" y="722.5" width="170" height="120" as="alternateBounds" />
          </mxGeometry>
        </mxCell>
        <mxCell id="C1lKtvfjvzhaC3hKCN_N-30" value="typescript (as base code)&lt;div&gt;tailwind (optional)&lt;/div&gt;&lt;div&gt;free to choose others&lt;/div&gt;" style="align=left;strokeColor=none;fillColor=light-dark(#f2e8e8, #ededed);spacingLeft=4;spacingRight=4;fontSize=12;verticalAlign=top;resizable=0;rotatable=0;part=1;html=1;whiteSpace=wrap;" parent="C1lKtvfjvzhaC3hKCN_N-29" vertex="1">
          <mxGeometry y="25" width="170" height="95" as="geometry" />
        </mxCell>
        <mxCell id="C1lKtvfjvzhaC3hKCN_N-102" value="&lt;font style=&quot;color: rgb(0, 0, 0);&quot;&gt;tools&lt;/font&gt;" style="swimlane;childLayout=stackLayout;horizontal=1;startSize=25;horizontalStack=0;rounded=1;fontSize=14;fontStyle=0;strokeWidth=2;resizeParent=0;resizeLast=1;shadow=0;dashed=0;align=center;arcSize=4;whiteSpace=wrap;html=1;fillColor=#1ba1e2;fontColor=#ffffff;strokeColor=#006EAF;movable=1;resizable=1;rotatable=1;deletable=1;editable=1;locked=0;connectable=1;" parent="1" vertex="1">
          <mxGeometry x="-190" y="330" width="170" height="120" as="geometry">
            <mxRectangle x="-90" y="490" width="80" height="20" as="alternateBounds" />
          </mxGeometry>
        </mxCell>
        <mxCell id="C1lKtvfjvzhaC3hKCN_N-103" value="typescript (as base code)&lt;div&gt;tailwind (optional)&lt;/div&gt;" style="align=left;strokeColor=none;fillColor=light-dark(#f2e8e8, #ededed);spacingLeft=4;spacingRight=4;fontSize=12;verticalAlign=top;resizable=0;rotatable=0;part=1;html=1;whiteSpace=wrap;" parent="C1lKtvfjvzhaC3hKCN_N-102" vertex="1">
          <mxGeometry y="25" width="170" height="95" as="geometry" />
        </mxCell>
        <mxCell id="C1lKtvfjvzhaC3hKCN_N-104" value="&lt;font style=&quot;color: rgb(0, 0, 0);&quot;&gt;tools&lt;/font&gt;" style="swimlane;childLayout=stackLayout;horizontal=1;startSize=25;horizontalStack=0;rounded=1;fontSize=14;fontStyle=0;strokeWidth=2;resizeParent=0;resizeLast=1;shadow=0;dashed=0;align=center;arcSize=4;whiteSpace=wrap;html=1;fillColor=#1ba1e2;fontColor=#ffffff;strokeColor=#006EAF;movable=1;resizable=1;rotatable=1;deletable=1;editable=1;locked=0;connectable=1;" parent="1" vertex="1" collapsed="1">
          <mxGeometry x="1820" y="65" width="80" height="20" as="geometry">
            <mxRectangle x="-90" y="490" width="170" height="120" as="alternateBounds" />
          </mxGeometry>
        </mxCell>
        <mxCell id="C1lKtvfjvzhaC3hKCN_N-105" value="typescript&lt;div&gt;Babylon.js&lt;br&gt;&lt;div&gt;tailwind (optional)&lt;/div&gt;&lt;/div&gt;" style="align=left;strokeColor=none;fillColor=light-dark(#f2e8e8, #ededed);spacingLeft=4;spacingRight=4;fontSize=12;verticalAlign=top;resizable=0;rotatable=0;part=1;html=1;whiteSpace=wrap;" parent="C1lKtvfjvzhaC3hKCN_N-104" vertex="1">
          <mxGeometry y="25" width="170" height="95" as="geometry" />
        </mxCell>
        <mxCell id="C1lKtvfjvzhaC3hKCN_N-106" value="&lt;font style=&quot;color: rgb(0, 0, 0);&quot;&gt;tools&lt;/font&gt;" style="swimlane;childLayout=stackLayout;horizontal=1;startSize=25;horizontalStack=0;rounded=1;fontSize=14;fontStyle=0;strokeWidth=2;resizeParent=0;resizeLast=1;shadow=0;dashed=0;align=center;arcSize=4;whiteSpace=wrap;html=1;fillColor=#1ba1e2;fontColor=#ffffff;strokeColor=#006EAF;movable=1;resizable=1;rotatable=1;deletable=1;editable=1;locked=0;connectable=1;" parent="1" vertex="1" collapsed="1">
          <mxGeometry x="1830" y="170" width="80" height="20" as="geometry">
            <mxRectangle x="-190" y="580" width="170" height="120" as="alternateBounds" />
          </mxGeometry>
        </mxCell>
        <mxCell id="C1lKtvfjvzhaC3hKCN_N-107" value="typescript&amp;nbsp;&lt;div&gt;tailwind css&amp;nbsp;&lt;/div&gt;&lt;div&gt;ONLY&lt;/div&gt;" style="align=left;strokeColor=none;fillColor=light-dark(#f2e8e8, #ededed);spacingLeft=4;spacingRight=4;fontSize=12;verticalAlign=top;resizable=0;rotatable=0;part=1;html=1;whiteSpace=wrap;" parent="C1lKtvfjvzhaC3hKCN_N-106" vertex="1">
          <mxGeometry y="25" width="170" height="95" as="geometry" />
        </mxCell>
        <mxCell id="C1lKtvfjvzhaC3hKCN_N-108" value="&lt;font style=&quot;color: rgb(0, 0, 0);&quot;&gt;tools&lt;/font&gt;" style="swimlane;childLayout=stackLayout;horizontal=1;startSize=25;horizontalStack=0;rounded=1;fontSize=14;fontStyle=0;strokeWidth=2;resizeParent=0;resizeLast=1;shadow=0;dashed=0;align=center;arcSize=4;whiteSpace=wrap;html=1;fillColor=#1ba1e2;fontColor=#ffffff;strokeColor=#006EAF;movable=1;resizable=1;rotatable=1;deletable=1;editable=1;locked=0;connectable=1;" parent="1" vertex="1" collapsed="1">
          <mxGeometry x="1825" y="257.5" width="80" height="20" as="geometry">
            <mxRectangle x="-210" y="340" width="170" height="120" as="alternateBounds" />
          </mxGeometry>
        </mxCell>
        <mxCell id="C1lKtvfjvzhaC3hKCN_N-109" value="typescript (as base code)&lt;div&gt;tailwind (optional)&lt;/div&gt;" style="align=left;strokeColor=none;fillColor=light-dark(#f2e8e8, #ededed);spacingLeft=4;spacingRight=4;fontSize=12;verticalAlign=top;resizable=0;rotatable=0;part=1;html=1;whiteSpace=wrap;" parent="C1lKtvfjvzhaC3hKCN_N-108" vertex="1">
          <mxGeometry y="25" width="170" height="95" as="geometry" />
        </mxCell>
        <mxCell id="C1lKtvfjvzhaC3hKCN_N-111" value="" style="endArrow=classic;html=1;rounded=0;exitX=0;exitY=1;exitDx=0;exitDy=0;" parent="1" source="C1lKtvfjvzhaC3hKCN_N-112" edge="1">
          <mxGeometry width="50" height="50" relative="1" as="geometry">
            <mxPoint x="210" y="850" as="sourcePoint" />
            <mxPoint x="120" y="850" as="targetPoint" />
          </mxGeometry>
        </mxCell>
        <mxCell id="C1lKtvfjvzhaC3hKCN_N-113" value="" style="endArrow=classic;html=1;rounded=0;exitX=0;exitY=1;exitDx=0;exitDy=0;" parent="1" source="C1lKtvfjvzhaC3hKCN_N-97" target="C1lKtvfjvzhaC3hKCN_N-112" edge="1">
          <mxGeometry width="50" height="50" relative="1" as="geometry">
            <mxPoint x="220" y="743" as="sourcePoint" />
            <mxPoint x="120" y="850" as="targetPoint" />
          </mxGeometry>
        </mxCell>
        <mxCell id="C1lKtvfjvzhaC3hKCN_N-112" value="no" style="ellipse;whiteSpace=wrap;html=1;aspect=fixed;fillColor=#f8cecc;strokeColor=#b85450;" parent="1" vertex="1">
          <mxGeometry x="160" y="850" width="20" height="20" as="geometry" />
        </mxCell>
        <mxCell id="C1lKtvfjvzhaC3hKCN_N-114" value="" style="endArrow=classic;html=1;rounded=0;exitX=0;exitY=1;exitDx=0;exitDy=0;" parent="1" source="C1lKtvfjvzhaC3hKCN_N-95" edge="1">
          <mxGeometry width="50" height="50" relative="1" as="geometry">
            <mxPoint x="50" y="690" as="sourcePoint" />
            <mxPoint x="-150" y="1080" as="targetPoint" />
            <Array as="points">
              <mxPoint x="-150" y="780" />
            </Array>
          </mxGeometry>
        </mxCell>
        <mxCell id="C1lKtvfjvzhaC3hKCN_N-115" value="no" style="ellipse;whiteSpace=wrap;html=1;aspect=fixed;fillColor=#f8cecc;strokeColor=#b85450;" parent="1" vertex="1">
          <mxGeometry x="-20" y="760" width="20" height="20" as="geometry" />
        </mxCell>
        <mxCell id="C1lKtvfjvzhaC3hKCN_N-116" value="" style="endArrow=classic;html=1;rounded=0;exitX=0.021;exitY=1.031;exitDx=0;exitDy=0;exitPerimeter=0;" parent="1" source="C1lKtvfjvzhaC3hKCN_N-96" edge="1">
          <mxGeometry width="50" height="50" relative="1" as="geometry">
            <mxPoint x="70" y="540" as="sourcePoint" />
            <mxPoint y="780" as="targetPoint" />
          </mxGeometry>
        </mxCell>
        <mxCell id="C1lKtvfjvzhaC3hKCN_N-48" value="&lt;font style=&quot;color: rgb(0, 0, 0);&quot;&gt;conflict&lt;/font&gt;" style="swimlane;childLayout=stackLayout;horizontal=1;startSize=25;horizontalStack=0;rounded=1;fontSize=14;fontStyle=0;strokeWidth=2;resizeParent=0;resizeLast=1;shadow=0;dashed=0;align=center;arcSize=4;whiteSpace=wrap;html=1;fillColor=#FF3333;fontColor=#ffffff;strokeColor=#006EAF;movable=1;resizable=1;rotatable=1;deletable=1;editable=1;locked=0;connectable=1;" parent="1" vertex="1" collapsed="1">
          <mxGeometry x="380" y="400" width="80" height="20" as="geometry">
            <mxRectangle x="380" y="400" width="280" height="680" as="alternateBounds" />
          </mxGeometry>
        </mxCell>
        <mxCell id="C1lKtvfjvzhaC3hKCN_N-49" value="IV.2 Web&amp;nbsp;&lt;div&gt;-&amp;nbsp;Major module: Use a framework to build the backend&lt;br&gt;&lt;div&gt;- Minor module: Use a database for the backend -and more.&lt;div&gt;-&amp;nbsp;Major module: Store the score of a tournament in the Blockchain&lt;/div&gt;&lt;div&gt;&lt;br&gt;&lt;/div&gt;&lt;div&gt;user management&lt;/div&gt;&lt;div&gt;-&amp;nbsp;Major module: Standard user management, authentication, users across tournaments&lt;/div&gt;&lt;div&gt;-&amp;nbsp;Major module: Implementing a remote authentication&lt;/div&gt;&lt;div&gt;gameplay ans user exp&lt;/div&gt;&lt;div&gt;-Major module: Live chat&lt;br&gt;&lt;div&gt;&lt;br&gt;&lt;/div&gt;&lt;div&gt;cybersecurity&lt;/div&gt;&lt;div&gt;-&amp;nbsp;&lt;span style=&quot;background-color: transparent;&quot;&gt;Major module: Implement WAF/ModSecurity with a hardened configuration and HashiCorp Vault for secrets management&lt;/span&gt;&lt;/div&gt;&lt;div&gt;- Major module: Implement Two-Factor Authentication (2FA) and JWT&lt;/div&gt;&lt;div&gt;-&amp;nbsp;&lt;span style=&quot;background-color: transparent;&quot;&gt;Minor module: GDPR compliance options with user anonymization, local&lt;/span&gt;&lt;/div&gt;&lt;div&gt;data management, and Account Deletion.&lt;/div&gt;&lt;div&gt;&lt;br&gt;&lt;/div&gt;&lt;/div&gt;&lt;/div&gt;&lt;/div&gt;&lt;div&gt;devops&lt;/div&gt;&lt;div&gt;&lt;div&gt;- Major module: Infrastructure setup for log management&lt;/div&gt;&lt;div&gt;- Major module: Designing the backend as microservices&lt;/div&gt;&lt;/div&gt;&lt;div&gt;- Minor module: Monitoring system.&lt;/div&gt;&lt;div&gt;&lt;br&gt;&lt;/div&gt;&lt;div&gt;IV.9 Accessibility&lt;/div&gt;&lt;div&gt;-&amp;nbsp;Minor module: Server-Side Rendering (SSR) Integration.&lt;/div&gt;&lt;div&gt;&lt;br&gt;&lt;/div&gt;&lt;div&gt;server side pong&lt;/div&gt;&lt;div&gt;-&amp;nbsp;&lt;span style=&quot;background-color: transparent;&quot;&gt;Major module: Replace basic Pong with server-side Pong and implement an API&lt;/span&gt;&lt;/div&gt;&lt;div&gt;- Major module: Enabling Pong gameplay via CLI against web users with API integration&lt;/div&gt;&lt;div&gt;&lt;br&gt;&lt;/div&gt;&lt;div&gt;files on why these contradict will be added later&lt;/div&gt;" style="align=left;strokeColor=none;fillColor=light-dark(#f2e8e8, #ededed);spacingLeft=4;spacingRight=4;fontSize=12;verticalAlign=top;resizable=0;rotatable=0;part=1;html=1;whiteSpace=wrap;" parent="C1lKtvfjvzhaC3hKCN_N-48" vertex="1">
          <mxGeometry y="25" width="280" height="655" as="geometry" />
        </mxCell>
        <mxCell id="C1lKtvfjvzhaC3hKCN_N-22" value="" style="rounded=0;whiteSpace=wrap;html=1;fillColor=light-dark(#99FFFF,#EDEDED);gradientColor=#FFFFFF;movable=1;resizable=1;rotatable=1;deletable=1;editable=1;locked=0;connectable=1;" parent="1" vertex="1">
          <mxGeometry x="180" y="55" width="380" height="165" as="geometry" />
        </mxCell>
        <mxCell id="C1lKtvfjvzhaC3hKCN_N-12" value="backend must be written in pure php with no frameworks" style="rounded=0;whiteSpace=wrap;html=1;movable=1;resizable=1;rotatable=1;deletable=1;editable=1;locked=0;connectable=1;" parent="1" vertex="1">
          <mxGeometry x="205" y="150" width="340" height="60" as="geometry" />
        </mxCell>
        <mxCell id="C1lKtvfjvzhaC3hKCN_N-13" value="&lt;div style=&quot;&quot;&gt;IV.2 Web :: Use a framework&amp;nbsp;&lt;span style=&quot;background-color: transparent; color: light-dark(rgb(0, 0, 0), rgb(255, 255, 255));&quot;&gt;to build the backend&lt;/span&gt;&lt;/div&gt;" style="rounded=0;whiteSpace=wrap;html=1;fillColor=light-dark(#F2F61E,#EDEDED);gradientColor=none;gradientDirection=east;align=center;strokeColor=none;movable=1;resizable=1;rotatable=1;deletable=1;editable=1;locked=0;connectable=1;" parent="1" vertex="1">
          <mxGeometry x="220" y="70" width="300" height="55" as="geometry" />
        </mxCell>
        <mxCell id="C1lKtvfjvzhaC3hKCN_N-19" value="&lt;font style=&quot;color: rgb(0, 0, 0);&quot;&gt;tools&lt;/font&gt;" style="swimlane;childLayout=stackLayout;horizontal=1;startSize=25;horizontalStack=0;rounded=1;fontSize=14;fontStyle=0;strokeWidth=2;resizeParent=0;resizeLast=1;shadow=0;dashed=0;align=center;arcSize=4;whiteSpace=wrap;html=1;fillColor=#1ba1e2;fontColor=#ffffff;strokeColor=#006EAF;movable=1;resizable=1;rotatable=1;deletable=1;editable=1;locked=0;connectable=1;" parent="1" vertex="1" collapsed="1">
          <mxGeometry x="435" y="105" width="80" height="20" as="geometry">
            <mxRectangle x="435" y="105" width="230" height="120" as="alternateBounds" />
          </mxGeometry>
        </mxCell>
        <mxCell id="C1lKtvfjvzhaC3hKCN_N-20" value="Fastify (add a link)&lt;div&gt;Node.js (add a link)&lt;/div&gt;&lt;div&gt;[modern routing, websockets, token auth]&lt;/div&gt;" style="align=left;strokeColor=none;fillColor=light-dark(#f2e8e8, #ededed);spacingLeft=4;spacingRight=4;fontSize=12;verticalAlign=top;resizable=0;rotatable=0;part=1;html=1;whiteSpace=wrap;" parent="C1lKtvfjvzhaC3hKCN_N-19" vertex="1">
          <mxGeometry y="25" width="230" height="95" as="geometry" />
        </mxCell>
        <mxCell id="C1lKtvfjvzhaC3hKCN_N-26" value="&lt;font style=&quot;color: rgb(0, 0, 0);&quot;&gt;tools&lt;/font&gt;" style="swimlane;childLayout=stackLayout;horizontal=1;startSize=25;horizontalStack=0;rounded=1;fontSize=14;fontStyle=0;strokeWidth=2;resizeParent=0;resizeLast=1;shadow=0;dashed=0;align=center;arcSize=4;whiteSpace=wrap;html=1;fillColor=#1ba1e2;fontColor=#ffffff;strokeColor=#006EAF;movable=1;resizable=1;rotatable=1;deletable=1;editable=1;locked=0;connectable=1;" parent="1" vertex="1" collapsed="1">
          <mxGeometry x="465" y="190" width="80" height="20" as="geometry">
            <mxRectangle x="290" y="55" width="230" height="120" as="alternateBounds" />
          </mxGeometry>
        </mxCell>
        <mxCell id="C1lKtvfjvzhaC3hKCN_N-27" value="Pure PHP and native tools&lt;div&gt;[manual routing, sessions]&lt;/div&gt;" style="align=left;strokeColor=none;fillColor=light-dark(#f2e8e8, #ededed);spacingLeft=4;spacingRight=4;fontSize=12;verticalAlign=top;resizable=0;rotatable=0;part=1;html=1;whiteSpace=wrap;" parent="C1lKtvfjvzhaC3hKCN_N-26" vertex="1">
          <mxGeometry y="25" width="230" height="95" as="geometry" />
        </mxCell>
        <mxCell id="C1lKtvfjvzhaC3hKCN_N-39" value="" style="endArrow=none;html=1;rounded=0;exitX=0.998;exitY=0.415;exitDx=0;exitDy=0;exitPerimeter=0;" parent="1" edge="1">
          <mxGeometry width="50" height="50" relative="1" as="geometry">
            <mxPoint x="389.4000000000001" y="-349.9950000000002" as="sourcePoint" />
            <mxPoint x="540" y="-217.82" as="targetPoint" />
            <Array as="points">
              <mxPoint x="540" y="-237.82" />
            </Array>
          </mxGeometry>
        </mxCell>
        <mxCell id="C1lKtvfjvzhaC3hKCN_N-45" value="" style="endArrow=none;html=1;rounded=0;exitX=1;exitY=1;exitDx=0;exitDy=0;entryX=0;entryY=1;entryDx=0;entryDy=0;fillColor=#a20025;strokeColor=#000000;" parent="1" source="C1lKtvfjvzhaC3hKCN_N-26" target="C1lKtvfjvzhaC3hKCN_N-85" edge="1">
          <mxGeometry width="50" height="50" relative="1" as="geometry">
            <mxPoint x="590" y="115" as="sourcePoint" />
            <mxPoint x="705" y="282.5" as="targetPoint" />
          </mxGeometry>
        </mxCell>
        <mxCell id="C1lKtvfjvzhaC3hKCN_N-46" value="database module::&lt;div&gt;&lt;div&gt;Use a database for the backend -and more.&lt;/div&gt;&lt;div&gt;The designated database for all DB instances in your project is SQLite This choice&lt;/div&gt;&lt;div&gt;ensure data consistency and compatibility across all project components and may&lt;/div&gt;&lt;div&gt;be a prerequisite for other modules, such as the backend Framework module.&lt;/div&gt;&lt;/div&gt;" style="rounded=0;whiteSpace=wrap;html=1;fillColor=light-dark(#FFC46C,#EDEDED);" parent="1" vertex="1">
          <mxGeometry x="920" y="72.5" width="310" height="130" as="geometry" />
        </mxCell>
        <mxCell id="C1lKtvfjvzhaC3hKCN_N-118" value="no" style="ellipse;whiteSpace=wrap;html=1;aspect=fixed;fillColor=#f8cecc;strokeColor=#b85450;" parent="1" vertex="1">
          <mxGeometry x="930" y="330" width="20" height="20" as="geometry" />
        </mxCell>
        <mxCell id="2GHSdd8_yqLICw1Ay3XO-1" value="hard" style="text;html=1;align=center;verticalAlign=middle;whiteSpace=wrap;rounded=0;" vertex="1" parent="1">
          <mxGeometry x="-440" y="1050" width="60" height="30" as="geometry" />
        </mxCell>
        <mxCell id="2GHSdd8_yqLICw1Ay3XO-7" value="no" style="ellipse;whiteSpace=wrap;html=1;aspect=fixed;fillColor=#f8cecc;strokeColor=#b85450;" vertex="1" parent="1">
          <mxGeometry x="830" y="-90" width="20" height="20" as="geometry" />
        </mxCell>
        <mxCell id="2GHSdd8_yqLICw1Ay3XO-9" value="" style="rounded=0;whiteSpace=wrap;html=1;fillColor=light-dark(#99FFFF,#EDEDED);gradientColor=#FFFFFF;" vertex="1" parent="1">
          <mxGeometry x="710" y="390" width="330" height="290" as="geometry" />
        </mxCell>
        <mxCell id="2GHSdd8_yqLICw1Ay3XO-10" value="&lt;div&gt;&amp;nbsp;Use a framework or toolkit to build the front-end.&lt;/div&gt;&lt;div&gt;Your frontend development must use the Tailwind CSS in addition of the Typescript, and nothing else.&lt;/div&gt;" style="rounded=0;whiteSpace=wrap;html=1;fillColor=light-dark(#FFC46C,#EDEDED);" vertex="1" parent="1">
          <mxGeometry x="720" y="480" width="310" height="90" as="geometry" />
        </mxCell>
        <mxCell id="2GHSdd8_yqLICw1Ay3XO-11" value="&lt;div&gt;IV.8 Graphics&lt;/div&gt;&lt;div&gt;Implementing Advanced 3D Techniques&lt;/div&gt;" style="rounded=0;whiteSpace=wrap;html=1;fillColor=light-dark(#F2F61E,#EDEDED);" vertex="1" parent="1">
          <mxGeometry x="720" y="405" width="300" height="60" as="geometry" />
        </mxCell>
        <mxCell id="2GHSdd8_yqLICw1Ay3XO-12" value="default typescript" style="rounded=0;whiteSpace=wrap;html=1;" vertex="1" parent="1">
          <mxGeometry x="725" y="597.5" width="300" height="60" as="geometry" />
        </mxCell>
        <mxCell id="2GHSdd8_yqLICw1Ay3XO-13" value="&lt;font style=&quot;color: rgb(0, 0, 0);&quot;&gt;tools&lt;/font&gt;" style="swimlane;childLayout=stackLayout;horizontal=1;startSize=25;horizontalStack=0;rounded=1;fontSize=14;fontStyle=0;strokeWidth=2;resizeParent=0;resizeLast=1;shadow=0;dashed=0;align=center;arcSize=4;whiteSpace=wrap;html=1;fillColor=#1ba1e2;fontColor=#ffffff;strokeColor=#006EAF;movable=1;resizable=1;rotatable=1;deletable=1;editable=1;locked=0;connectable=1;" vertex="1" collapsed="1" parent="1">
          <mxGeometry x="940" y="445" width="80" height="20" as="geometry">
            <mxRectangle x="-90" y="490" width="170" height="120" as="alternateBounds" />
          </mxGeometry>
        </mxCell>
        <mxCell id="2GHSdd8_yqLICw1Ay3XO-14" value="typescript&lt;div&gt;Babylon.js&lt;br&gt;&lt;div&gt;tailwind (optional)&lt;/div&gt;&lt;/div&gt;" style="align=left;strokeColor=none;fillColor=light-dark(#f2e8e8, #ededed);spacingLeft=4;spacingRight=4;fontSize=12;verticalAlign=top;resizable=0;rotatable=0;part=1;html=1;whiteSpace=wrap;" vertex="1" parent="2GHSdd8_yqLICw1Ay3XO-13">
          <mxGeometry y="25" width="170" height="95" as="geometry" />
        </mxCell>
        <mxCell id="2GHSdd8_yqLICw1Ay3XO-15" value="&lt;font style=&quot;color: rgb(0, 0, 0);&quot;&gt;tools&lt;/font&gt;" style="swimlane;childLayout=stackLayout;horizontal=1;startSize=25;horizontalStack=0;rounded=1;fontSize=14;fontStyle=0;strokeWidth=2;resizeParent=0;resizeLast=1;shadow=0;dashed=0;align=center;arcSize=4;whiteSpace=wrap;html=1;fillColor=#1ba1e2;fontColor=#ffffff;strokeColor=#006EAF;movable=1;resizable=1;rotatable=1;deletable=1;editable=1;locked=0;connectable=1;" vertex="1" collapsed="1" parent="1">
          <mxGeometry x="950" y="550" width="80" height="20" as="geometry">
            <mxRectangle x="-190" y="580" width="170" height="120" as="alternateBounds" />
          </mxGeometry>
        </mxCell>
        <mxCell id="2GHSdd8_yqLICw1Ay3XO-16" value="typescript&amp;nbsp;&lt;div&gt;tailwind css&amp;nbsp;&lt;/div&gt;&lt;div&gt;ONLY&lt;/div&gt;" style="align=left;strokeColor=none;fillColor=light-dark(#f2e8e8, #ededed);spacingLeft=4;spacingRight=4;fontSize=12;verticalAlign=top;resizable=0;rotatable=0;part=1;html=1;whiteSpace=wrap;" vertex="1" parent="2GHSdd8_yqLICw1Ay3XO-15">
          <mxGeometry y="25" width="170" height="95" as="geometry" />
        </mxCell>
        <mxCell id="2GHSdd8_yqLICw1Ay3XO-17" value="&lt;font style=&quot;color: rgb(0, 0, 0);&quot;&gt;tools&lt;/font&gt;" style="swimlane;childLayout=stackLayout;horizontal=1;startSize=25;horizontalStack=0;rounded=1;fontSize=14;fontStyle=0;strokeWidth=2;resizeParent=0;resizeLast=1;shadow=0;dashed=0;align=center;arcSize=4;whiteSpace=wrap;html=1;fillColor=#1ba1e2;fontColor=#ffffff;strokeColor=#006EAF;movable=1;resizable=1;rotatable=1;deletable=1;editable=1;locked=0;connectable=1;" vertex="1" collapsed="1" parent="1">
          <mxGeometry x="945" y="637.5" width="80" height="20" as="geometry">
            <mxRectangle x="-210" y="340" width="170" height="120" as="alternateBounds" />
          </mxGeometry>
        </mxCell>
        <mxCell id="2GHSdd8_yqLICw1Ay3XO-18" value="typescript (as base code)&lt;div&gt;tailwind (optional)&lt;/div&gt;" style="align=left;strokeColor=none;fillColor=light-dark(#f2e8e8, #ededed);spacingLeft=4;spacingRight=4;fontSize=12;verticalAlign=top;resizable=0;rotatable=0;part=1;html=1;whiteSpace=wrap;" vertex="1" parent="2GHSdd8_yqLICw1Ay3XO-17">
          <mxGeometry y="25" width="170" height="95" as="geometry" />
        </mxCell>
        <mxCell id="2GHSdd8_yqLICw1Ay3XO-20" value="" style="endArrow=classic;html=1;rounded=0;exitX=1;exitY=0;exitDx=0;exitDy=0;fillColor=#008a00;strokeColor=#005700;" edge="1" parent="1">
          <mxGeometry width="50" height="50" relative="1" as="geometry">
            <mxPoint x="1050" y="-30" as="sourcePoint" />
            <mxPoint x="1100" y="-180" as="targetPoint" />
            <Array as="points">
              <mxPoint x="1060" y="-70" />
            </Array>
          </mxGeometry>
        </mxCell>
        <mxCell id="2GHSdd8_yqLICw1Ay3XO-21" value="yes" style="ellipse;whiteSpace=wrap;html=1;aspect=fixed;fillColor=#d5e8d4;strokeColor=#82b366;container=0;" vertex="1" parent="1">
          <mxGeometry x="780" y="-130" width="25" height="25" as="geometry" />
        </mxCell>
        <mxCell id="2GHSdd8_yqLICw1Ay3XO-22" value="" style="endArrow=classic;html=1;rounded=0;exitX=1;exitY=1;exitDx=0;exitDy=0;entryX=0;entryY=1;entryDx=0;entryDy=0;fillColor=#a20025;strokeColor=#6F0000;" edge="1" parent="1">
          <mxGeometry width="50" height="50" relative="1" as="geometry">
            <mxPoint x="1015" y="-400" as="sourcePoint" />
            <mxPoint x="1195" y="-280" as="targetPoint" />
          </mxGeometry>
        </mxCell>
        <mxCell id="2GHSdd8_yqLICw1Ay3XO-6" value="" style="endArrow=classic;html=1;rounded=0;exitX=0;exitY=1;exitDx=0;exitDy=0;entryX=0.94;entryY=0.016;entryDx=0;entryDy=0;entryPerimeter=0;fillColor=#a20025;strokeColor=#6F0000;" edge="1" parent="1">
          <mxGeometry width="50" height="50" relative="1" as="geometry">
            <mxPoint x="960" y="-450" as="sourcePoint" />
            <mxPoint x="1280.1999999999998" y="-300.3599999999999" as="targetPoint" />
          </mxGeometry>
        </mxCell>
        <mxCell id="2GHSdd8_yqLICw1Ay3XO-23" value="" style="endArrow=none;html=1;rounded=0;entryX=0;entryY=0;entryDx=0;entryDy=0;exitX=0.996;exitY=0.385;exitDx=0;exitDy=0;exitPerimeter=0;" edge="1" parent="1" source="C1lKtvfjvzhaC3hKCN_N-13" target="C1lKtvfjvzhaC3hKCN_N-85">
          <mxGeometry width="50" height="50" relative="1" as="geometry">
            <mxPoint x="590" y="150" as="sourcePoint" />
            <mxPoint x="640" y="100" as="targetPoint" />
          </mxGeometry>
        </mxCell>
        <mxCell id="2GHSdd8_yqLICw1Ay3XO-24" value="" style="endArrow=classic;html=1;rounded=0;exitX=0.017;exitY=-0.015;exitDx=0;exitDy=0;exitPerimeter=0;" edge="1" parent="1">
          <mxGeometry width="50" height="50" relative="1" as="geometry">
            <mxPoint x="916.29" y="-130" as="sourcePoint" />
            <mxPoint x="690" y="-237" as="targetPoint" />
            <Array as="points">
              <mxPoint x="840" y="-167" />
            </Array>
          </mxGeometry>
        </mxCell>
        <mxCell id="2GHSdd8_yqLICw1Ay3XO-28" value="Table" style="shape=table;startSize=30;container=1;collapsible=1;childLayout=tableLayout;fixedRows=1;rowLines=0;fontStyle=1;align=center;resizeLast=1;html=1;whiteSpace=wrap;" vertex="1" parent="1">
          <mxGeometry x="-227.5" y="-130" width="180" height="150" as="geometry" />
        </mxCell>
        <mxCell id="2GHSdd8_yqLICw1Ay3XO-29" value="" style="shape=tableRow;horizontal=0;startSize=0;swimlaneHead=0;swimlaneBody=0;fillColor=none;collapsible=0;dropTarget=0;points=[[0,0.5],[1,0.5]];portConstraint=eastwest;top=0;left=0;right=0;bottom=0;html=1;" vertex="1" parent="2GHSdd8_yqLICw1Ay3XO-28">
          <mxGeometry y="30" width="180" height="30" as="geometry" />
        </mxCell>
        <mxCell id="2GHSdd8_yqLICw1Ay3XO-30" value="PK,FK1" style="shape=partialRectangle;connectable=0;fillColor=none;top=0;left=0;bottom=0;right=0;fontStyle=1;overflow=hidden;html=1;whiteSpace=wrap;" vertex="1" parent="2GHSdd8_yqLICw1Ay3XO-29">
          <mxGeometry width="60" height="30" as="geometry">
            <mxRectangle width="60" height="30" as="alternateBounds" />
          </mxGeometry>
        </mxCell>
        <mxCell id="2GHSdd8_yqLICw1Ay3XO-31" value="Row 1" style="shape=partialRectangle;connectable=0;fillColor=none;top=0;left=0;bottom=0;right=0;align=left;spacingLeft=6;fontStyle=5;overflow=hidden;html=1;whiteSpace=wrap;" vertex="1" parent="2GHSdd8_yqLICw1Ay3XO-29">
          <mxGeometry x="60" width="120" height="30" as="geometry">
            <mxRectangle width="120" height="30" as="alternateBounds" />
          </mxGeometry>
        </mxCell>
        <mxCell id="2GHSdd8_yqLICw1Ay3XO-32" value="" style="shape=tableRow;horizontal=0;startSize=0;swimlaneHead=0;swimlaneBody=0;fillColor=none;collapsible=0;dropTarget=0;points=[[0,0.5],[1,0.5]];portConstraint=eastwest;top=0;left=0;right=0;bottom=1;html=1;" vertex="1" parent="2GHSdd8_yqLICw1Ay3XO-28">
          <mxGeometry y="60" width="180" height="30" as="geometry" />
        </mxCell>
        <mxCell id="2GHSdd8_yqLICw1Ay3XO-33" value="PK,FK2" style="shape=partialRectangle;connectable=0;fillColor=none;top=0;left=0;bottom=0;right=0;fontStyle=1;overflow=hidden;html=1;whiteSpace=wrap;" vertex="1" parent="2GHSdd8_yqLICw1Ay3XO-32">
          <mxGeometry width="60" height="30" as="geometry">
            <mxRectangle width="60" height="30" as="alternateBounds" />
          </mxGeometry>
        </mxCell>
        <mxCell id="2GHSdd8_yqLICw1Ay3XO-34" value="Row 2" style="shape=partialRectangle;connectable=0;fillColor=none;top=0;left=0;bottom=0;right=0;align=left;spacingLeft=6;fontStyle=5;overflow=hidden;html=1;whiteSpace=wrap;" vertex="1" parent="2GHSdd8_yqLICw1Ay3XO-32">
          <mxGeometry x="60" width="120" height="30" as="geometry">
            <mxRectangle width="120" height="30" as="alternateBounds" />
          </mxGeometry>
        </mxCell>
        <mxCell id="2GHSdd8_yqLICw1Ay3XO-35" value="" style="shape=tableRow;horizontal=0;startSize=0;swimlaneHead=0;swimlaneBody=0;fillColor=none;collapsible=0;dropTarget=0;points=[[0,0.5],[1,0.5]];portConstraint=eastwest;top=0;left=0;right=0;bottom=0;html=1;" vertex="1" parent="2GHSdd8_yqLICw1Ay3XO-28">
          <mxGeometry y="90" width="180" height="30" as="geometry" />
        </mxCell>
        <mxCell id="2GHSdd8_yqLICw1Ay3XO-36" value="" style="shape=partialRectangle;connectable=0;fillColor=none;top=0;left=0;bottom=0;right=0;editable=1;overflow=hidden;html=1;whiteSpace=wrap;" vertex="1" parent="2GHSdd8_yqLICw1Ay3XO-35">
          <mxGeometry width="60" height="30" as="geometry">
            <mxRectangle width="60" height="30" as="alternateBounds" />
          </mxGeometry>
        </mxCell>
        <mxCell id="2GHSdd8_yqLICw1Ay3XO-37" value="Row 3" style="shape=partialRectangle;connectable=0;fillColor=none;top=0;left=0;bottom=0;right=0;align=left;spacingLeft=6;overflow=hidden;html=1;whiteSpace=wrap;" vertex="1" parent="2GHSdd8_yqLICw1Ay3XO-35">
          <mxGeometry x="60" width="120" height="30" as="geometry">
            <mxRectangle width="120" height="30" as="alternateBounds" />
          </mxGeometry>
        </mxCell>
        <mxCell id="2GHSdd8_yqLICw1Ay3XO-38" value="" style="shape=tableRow;horizontal=0;startSize=0;swimlaneHead=0;swimlaneBody=0;fillColor=none;collapsible=0;dropTarget=0;points=[[0,0.5],[1,0.5]];portConstraint=eastwest;top=0;left=0;right=0;bottom=0;html=1;" vertex="1" parent="2GHSdd8_yqLICw1Ay3XO-28">
          <mxGeometry y="120" width="180" height="30" as="geometry" />
        </mxCell>
        <mxCell id="2GHSdd8_yqLICw1Ay3XO-39" value="" style="shape=partialRectangle;connectable=0;fillColor=none;top=0;left=0;bottom=0;right=0;editable=1;overflow=hidden;html=1;whiteSpace=wrap;" vertex="1" parent="2GHSdd8_yqLICw1Ay3XO-38">
          <mxGeometry width="60" height="30" as="geometry">
            <mxRectangle width="60" height="30" as="alternateBounds" />
          </mxGeometry>
        </mxCell>
        <mxCell id="2GHSdd8_yqLICw1Ay3XO-40" value="Row 4" style="shape=partialRectangle;connectable=0;fillColor=none;top=0;left=0;bottom=0;right=0;align=left;spacingLeft=6;overflow=hidden;html=1;whiteSpace=wrap;" vertex="1" parent="2GHSdd8_yqLICw1Ay3XO-38">
          <mxGeometry x="60" width="120" height="30" as="geometry">
            <mxRectangle width="120" height="30" as="alternateBounds" />
          </mxGeometry>
        </mxCell>
        <mxCell id="2GHSdd8_yqLICw1Ay3XO-41" value="Forms must be validated client-side &amp;lt;br&amp;gt; Can&#39;t use JWT/Auth modules" style="rounded=1;whiteSpace=wrap;html=1;" vertex="1" parent="1">
          <mxGeometry x="215" y="495" width="155" height="60" as="geometry" />
        </mxCell>
        <mxCell id="2GHSdd8_yqLICw1Ay3XO-42" value="More setup; must implement HTTPS &amp;amp; secure routing" style="rounded=1;whiteSpace=wrap;html=1;" vertex="1" parent="1">
          <mxGeometry x="610" y="5" width="120" height="60" as="geometry" />
        </mxCell>
        <mxCell id="2GHSdd8_yqLICw1Ay3XO-43" value="Simpler setup, but less scalable &amp;lt;br&amp;gt; Manual form validation &amp;amp; routing" style="rounded=1;whiteSpace=wrap;html=1;" vertex="1" parent="1">
          <mxGeometry x="680" y="158" width="160" height="60" as="geometry" />
        </mxCell>
        <mxCell id="2GHSdd8_yqLICw1Ay3XO-45" value="Must override default styling constraints," style="rounded=1;whiteSpace=wrap;html=1;" vertex="1" parent="1">
          <mxGeometry x="1920" y="20" width="260" height="60" as="geometry" />
        </mxCell>
        <mxCell id="2GHSdd8_yqLICw1Ay3XO-46" value="Works with graphics if default rules respected" style="rounded=1;whiteSpace=wrap;html=1;" vertex="1" parent="1">
          <mxGeometry x="1920" y="220" width="285" height="60" as="geometry" />
        </mxCell>
        <mxCell id="2GHSdd8_yqLICw1Ay3XO-48" value="potential conflicts ,&amp;nbsp;&lt;br&gt;if babaylon.js asset management tools or alike require different db&lt;div&gt;blockchin tools may require postgress or redis&lt;/div&gt;&lt;div&gt;&lt;br&gt;&lt;/div&gt;&lt;div&gt;&lt;br&gt;&lt;/div&gt;" style="shape=hexagon;perimeter=hexagonPerimeter2;whiteSpace=wrap;html=1;fixedSize=1;" vertex="1" parent="1">
          <mxGeometry x="1110" y="-70" width="640" height="80" as="geometry" />
        </mxCell>
        <mxCell id="2GHSdd8_yqLICw1Ay3XO-49" value="â€¢ Major module: Designing the Backend as Microservices." style="rounded=0;whiteSpace=wrap;html=1;" vertex="1" parent="1">
          <mxGeometry x="1285" y="115" width="290" height="60" as="geometry" />
        </mxCell>
        <mxCell id="2GHSdd8_yqLICw1Ay3XO-50" value="if yes how many services? SQLlite is level locking." style="rounded=1;whiteSpace=wrap;html=1;" vertex="1" parent="1">
          <mxGeometry x="1290" y="205" width="270" height="60" as="geometry" />
        </mxCell>
        <mxCell id="2GHSdd8_yqLICw1Ay3XO-51" value="Major module: Store the score of a tournament in the Blockchain." style="rounded=0;whiteSpace=wrap;html=1;" vertex="1" parent="1">
          <mxGeometry x="2300" y="10" width="230" height="60" as="geometry" />
        </mxCell>
        <mxCell id="2GHSdd8_yqLICw1Ay3XO-52" value="&lt;div&gt;Minor module: GDPR compliance options with user anonymization, local data&lt;/div&gt;&lt;div&gt;management, and account deletion.&lt;/div&gt;" style="rounded=0;whiteSpace=wrap;html=1;" vertex="1" parent="1">
          <mxGeometry x="2300" y="215" width="230" height="60" as="geometry" />
        </mxCell>
        <mxCell id="2GHSdd8_yqLICw1Ay3XO-54" value="can potentially be done together ,&amp;nbsp;&lt;div&gt;must be cautious due to how blockchains work&amp;nbsp;&lt;/div&gt;" style="rhombus;whiteSpace=wrap;html=1;fillColor=#CC0066;gradientColor=#F19C99;" vertex="1" parent="1">
          <mxGeometry x="2270" y="70" width="290" height="150" as="geometry" />
        </mxCell>
        <mxCell id="2GHSdd8_yqLICw1Ay3XO-55" value="" style="endArrow=none;html=1;rounded=0;exitX=0.15;exitY=1.006;exitDx=0;exitDy=0;exitPerimeter=0;" edge="1" parent="1" source="2GHSdd8_yqLICw1Ay3XO-52">
          <mxGeometry width="50" height="50" relative="1" as="geometry">
            <mxPoint x="2340" y="350" as="sourcePoint" />
            <mxPoint x="1500" y="270" as="targetPoint" />
            <Array as="points">
              <mxPoint x="2340" y="370" />
              <mxPoint x="1550" y="320" />
            </Array>
          </mxGeometry>
        </mxCell>
        <mxCell id="2GHSdd8_yqLICw1Ay3XO-56" value="potentially more deletions required" style="rounded=1;whiteSpace=wrap;html=1;rotation=5;" vertex="1" parent="1">
          <mxGeometry x="1880" y="360" width="120" height="60" as="geometry" />
        </mxCell>
      </root>
    </mxGraphModel>
  </diagram>
</mxfile>
